<svg width="115" height="75" viewBox="0 0 115 75" fill="none" xmlns="http://www.w3.org/2000/svg">
<path d="M11.7414 66.4703L17.1814 69.7503L15.7314 63.5603L20.5414 59.4003L14.2114 58.8703L11.7414 53.0303L9.27141 58.8703L2.94141 59.4003L7.74141 63.5603L6.30141 69.7503L11.7414 66.4703Z" fill="#073937"/>
<path d="M34.6203 66.4703L40.0603 69.7503L38.6103 63.5603L43.4203 59.4003L37.0903 58.8703L34.6203 53.0303L32.1503 58.8703L25.8203 59.4003L30.6203 63.5603L29.1803 69.7503L34.6203 66.4703Z" fill="#073937"/>
<path d="M57.5031 66.4703L62.9431 69.7503L61.4931 63.5603L66.3031 59.4003L59.9731 58.8703L57.5031 53.0303L55.0231 58.8703L48.7031 59.4003L53.5031 63.5603L52.0631 69.7503L57.5031 66.4703Z" fill="#073937"/>
<path d="M80.3815 66.4703L85.8215 69.7503L84.3715 63.5603L89.1815 59.4003L82.8515 58.8703L80.3815 53.0303L77.9115 58.8703L71.5815 59.4003L76.3815 63.5603L74.9415 69.7503L80.3815 66.4703Z" fill="#073937"/>
<path d="M106.701 58.9403V68.5503L103.261 66.4703L97.8214 69.7503L99.2614 63.5603L94.4614 59.4003L100.781 58.8603L103.261 53.0303L105.731 58.8603L106.701 58.9403Z" fill="#073937"/>
<path opacity="0.3" d="M107.253 63.5604L108.693 69.7504L106.703 68.5504V58.9404L112.063 59.4004L107.253 63.5604Z" fill="#073937"/>
<path d="M6.05108 39.7597C5.01729 39.7401 4.01163 39.4197 3.15708 38.8376C2.30252 38.2555 1.6361 37.437 1.23933 36.4822C0.842553 35.5274 0.732613 34.4776 0.922953 33.4613C1.11329 32.445 1.59566 31.5062 2.31108 30.7597C2.79457 30.2603 3.37689 29.8672 4.02085 29.6055C4.66481 29.3438 5.35627 29.2192 6.05108 29.2397C6.75243 29.2171 7.44979 29.3538 8.09067 29.6396C8.73155 29.9254 9.29926 30.3528 9.75108 30.8897L8.83108 31.7897C8.49942 31.3725 8.07612 31.0374 7.59401 30.8102C7.1119 30.583 6.58394 30.4699 6.05108 30.4797C5.53192 30.4668 5.01561 30.5603 4.53402 30.7547C4.05244 30.949 3.61581 31.24 3.25108 31.6097C2.53568 32.4062 2.13995 33.4391 2.13995 34.5097C2.13995 35.5804 2.53568 36.6132 3.25108 37.4097C3.61581 37.7794 4.05244 38.0704 4.53402 38.2648C5.01561 38.4591 5.53192 38.5527 6.05108 38.5397C6.64334 38.5257 7.22509 38.3802 7.75428 38.1139C8.28347 37.8476 8.7469 37.467 9.11108 36.9997L10.0511 37.9097C9.57614 38.4842 8.97342 38.9397 8.29108 39.2397C7.59041 39.5719 6.82642 39.7492 6.05108 39.7597ZM17.1911 39.5297H16.0011V38.5297H15.9411C15.7236 38.8893 15.4125 39.1831 15.0411 39.3797C14.6489 39.5968 14.2092 39.7136 13.7611 39.7197C13.395 39.7474 13.0272 39.6965 12.6823 39.5706C12.3374 39.4448 12.0233 39.2467 11.7611 38.9897C11.2943 38.4344 11.0518 37.7246 11.0811 36.9997V32.6297H12.3711V36.8797C12.3451 37.1097 12.3716 37.3426 12.4487 37.5609C12.5257 37.7791 12.6513 37.977 12.8159 38.1397C12.9805 38.3024 13.1799 38.4257 13.3991 38.5002C13.6182 38.5746 13.8514 38.5984 14.0811 38.5697C14.3252 38.5781 14.568 38.5312 14.7914 38.4325C15.0147 38.3338 15.2129 38.1858 15.3711 37.9997C15.7201 37.5791 15.9048 37.0462 15.8911 36.4997V32.6297H17.1911V39.5297ZM24.0011 37.6197C23.9976 37.9172 23.9243 38.2098 23.7871 38.4738C23.6499 38.7378 23.4526 38.9659 23.2111 39.1397C22.6346 39.5684 21.9289 39.7872 21.2111 39.7597C20.5585 39.773 19.9182 39.5806 19.3811 39.2097C18.8652 38.8618 18.4703 38.362 18.2511 37.7797L19.4111 37.2897C19.5533 37.689 19.8108 38.037 20.1511 38.2897C20.459 38.5135 20.8305 38.6326 21.2111 38.6297C21.563 38.6346 21.9094 38.5411 22.2111 38.3597C22.3282 38.2993 22.4275 38.2094 22.4994 38.099C22.5713 37.9885 22.6132 37.8613 22.6211 37.7297C22.6211 37.2897 22.2811 36.9697 21.6211 36.7297L20.4411 36.4297C19.0911 36.0897 18.4411 35.4297 18.4411 34.4897C18.438 34.1974 18.5065 33.9087 18.6408 33.649C18.775 33.3892 18.9708 33.1663 19.2111 32.9997C19.7459 32.6525 20.3646 32.4562 21.0018 32.4316C21.639 32.4069 22.271 32.5549 22.8311 32.8597C23.2873 33.1252 23.6399 33.5377 23.8311 34.0297L22.6811 34.5097C22.5479 34.2191 22.3231 33.9802 22.0411 33.8297C21.7345 33.6626 21.3903 33.5765 21.0411 33.5797C20.7204 33.5766 20.4052 33.6632 20.1311 33.8297C20.0153 33.8882 19.9173 33.9765 19.847 34.0855C19.7767 34.1944 19.7367 34.3202 19.7311 34.4497C19.7311 34.8497 20.1011 35.1297 20.8411 35.2997L21.8411 35.5697C23.2911 35.8797 24.0011 36.5697 24.0011 37.6197ZM27.7811 39.6197C27.5135 39.6391 27.2448 39.6006 26.9934 39.5069C26.742 39.4133 26.5136 39.2666 26.3239 39.0769C26.1342 38.8872 25.9875 38.6588 25.8939 38.4074C25.8002 38.156 25.7617 37.8873 25.7811 37.6197V33.8097H24.5811V32.6297H25.7911V30.5197H27.0911V32.6297H28.7811V33.8097H27.0911V37.2497C27.053 37.5818 27.1463 37.9156 27.3511 38.1797C27.5143 38.3389 27.733 38.4286 27.9611 38.4297C28.0608 38.4396 28.1613 38.4396 28.2611 38.4297L28.5411 38.3297L29.0011 39.4597C28.6182 39.5898 28.2153 39.6508 27.8111 39.6397L27.7811 39.6197ZM39.0011 39.5297H37.6911V32.6297H38.9311V33.6297C39.1525 33.2697 39.4668 32.9761 39.8411 32.7797C40.2139 32.5699 40.6333 32.4565 41.0611 32.4497C41.5319 32.4368 41.9967 32.5582 42.4011 32.7997C42.7807 33.0348 43.0751 33.3852 43.2411 33.7997C43.4861 33.3894 43.8354 33.0511 44.2534 32.8193C44.6713 32.5875 45.1432 32.4703 45.6211 32.4797C45.9642 32.4574 46.308 32.5112 46.6279 32.6374C46.9477 32.7636 47.2357 32.9591 47.4711 33.2097C47.9372 33.7985 48.1656 34.5407 48.1111 35.2897V39.5997H46.8711V35.4197C46.9128 34.9272 46.7897 34.4347 46.5211 34.0197C46.3681 33.8628 46.1816 33.7426 45.9755 33.6681C45.7693 33.5936 45.549 33.5668 45.3311 33.5897C45.0881 33.5901 44.8485 33.6473 44.6314 33.7567C44.4144 33.866 44.226 34.0246 44.0811 34.2197C43.741 34.6409 43.5604 35.1685 43.5711 35.7097V39.5297H42.2811V35.4197C42.3228 34.9272 42.1997 34.4347 41.9311 34.0197C41.7781 33.8628 41.5916 33.7426 41.3855 33.6681C41.1793 33.5936 40.959 33.5668 40.7411 33.5897C40.4981 33.5901 40.2585 33.6473 40.0414 33.7567C39.8244 33.866 39.636 34.0246 39.4911 34.2197C39.1582 34.6436 38.9848 35.171 39.0011 35.7097V39.5297ZM58.5511 39.5297H57.2511V32.6297H58.4911V33.7597H58.5511C58.7048 33.3625 58.9909 33.0305 59.3611 32.8197C59.7154 32.5774 60.132 32.4421 60.5611 32.4297C60.9026 32.4163 61.2432 32.4742 61.5611 32.5997L61.1611 33.8597C60.9166 33.7777 60.6585 33.7437 60.4011 33.7597C60.1592 33.7596 59.9202 33.8123 59.7008 33.9143C59.4814 34.0162 59.287 34.1648 59.1311 34.3497C58.781 34.7236 58.5877 35.2175 58.5911 35.7297L58.5511 39.5297ZM84.2211 39.5297H82.9011L80.1111 32.6297H81.5211L83.5211 37.9797L85.5211 32.6297H87.0011L84.2211 39.5297ZM89.5511 30.2497C89.5532 30.3708 89.5303 30.491 89.4839 30.6029C89.4374 30.7147 89.3684 30.8158 89.2811 30.8997C89.1965 30.9847 89.096 31.0521 88.9853 31.0981C88.8746 31.1441 88.7559 31.1678 88.6361 31.1678C88.5162 31.1678 88.3975 31.1441 88.2868 31.0981C88.1761 31.0521 88.0756 30.9847 87.9911 30.8997C87.9038 30.8158 87.8347 30.7147 87.7883 30.6029C87.7418 30.491 87.7189 30.3708 87.7211 30.2497C87.7208 30.128 87.7455 30.0075 87.7937 29.8957C87.8419 29.7839 87.9124 29.6832 88.0011 29.5997C88.0855 29.5137 88.1869 29.4462 88.2988 29.4015C88.4107 29.3567 88.5306 29.3357 88.6511 29.3397C88.7698 29.3377 88.8877 29.3596 88.9977 29.4043C89.1076 29.449 89.2075 29.5155 89.2911 29.5997C89.3745 29.6851 89.439 29.7872 89.4803 29.8992C89.5217 30.0112 89.539 30.1306 89.5311 30.2497H89.5511ZM89.2811 32.6297V39.5297H88.0011V32.6297H89.2811ZM108.081 32.6297L105.861 39.5297H104.531L102.821 34.2397L101.111 39.5297H99.7811L97.5611 32.6297H98.9111L100.441 37.8397L102.141 32.6297H103.481L105.181 37.8397L106.701 32.6297H108.081ZM114.211 37.6297C114.208 37.9272 114.134 38.2198 113.997 38.4838C113.86 38.7478 113.663 38.9759 113.421 39.1497C112.845 39.5784 112.139 39.7972 111.421 39.7697C110.768 39.783 110.128 39.5906 109.591 39.2197C109.074 38.8758 108.681 38.3744 108.471 37.7897L109.621 37.2997C109.767 37.697 110.024 38.0441 110.361 38.2997C110.669 38.5235 111.04 38.6426 111.421 38.6397C111.773 38.6457 112.12 38.5521 112.421 38.3697C112.538 38.3093 112.638 38.2194 112.709 38.109C112.781 37.9985 112.823 37.8713 112.831 37.7397C112.831 37.2997 112.491 36.9797 111.831 36.7397L110.651 36.4397C109.301 36.0997 108.651 35.4397 108.651 34.4997C108.645 34.204 108.712 33.9113 108.846 33.6478C108.98 33.3843 109.178 33.1582 109.421 32.9897C109.956 32.6425 110.575 32.4462 111.212 32.4216C111.849 32.3969 112.481 32.5449 113.041 32.8497C113.497 33.1152 113.85 33.5277 114.041 34.0197L112.891 34.4997C112.758 34.2091 112.533 33.9702 112.251 33.8197C111.944 33.6526 111.6 33.5665 111.251 33.5697C110.931 33.5682 110.616 33.6546 110.341 33.8197C110.225 33.8782 110.127 33.9665 110.057 34.0755C109.987 34.1844 109.947 34.3102 109.941 34.4397C109.941 34.8397 110.311 35.1197 111.051 35.2897L112.051 35.5597C113.501 35.8797 114.191 36.5697 114.191 37.6197L114.211 37.6297ZM35.6311 33.4497C35.3035 33.1143 34.9088 32.8519 34.4729 32.6796C34.0369 32.5073 33.5694 32.4289 33.1011 32.4497C32.6299 32.4305 32.1599 32.5094 31.7209 32.6816C31.2819 32.8537 30.8835 33.1153 30.5511 33.4497C29.9152 34.1784 29.5649 35.1127 29.5649 36.0797C29.5649 37.0468 29.9152 37.9811 30.5511 38.7097C30.8835 39.0441 31.2819 39.3057 31.7209 39.4779C32.1599 39.65 32.6299 39.729 33.1011 39.7097C33.5694 39.7305 34.0369 39.6522 34.4729 39.4799C34.9088 39.3075 35.3035 39.0451 35.6311 38.7097C36.2874 37.9911 36.6513 37.053 36.6513 36.0797C36.6513 35.1065 36.2874 34.1684 35.6311 33.4497ZM34.7011 37.8797C34.4993 38.1026 34.252 38.2795 33.976 38.3985C33.7 38.5175 33.4016 38.5759 33.1011 38.5697C32.7991 38.5754 32.4994 38.5168 32.2219 38.3979C31.9443 38.2789 31.6952 38.1023 31.4911 37.8797C31.0777 37.3729 30.8519 36.7388 30.8519 36.0847C30.8519 35.4306 31.0777 34.7966 31.4911 34.2897C31.6947 34.0658 31.9435 33.8877 32.221 33.767C32.4985 33.6464 32.7985 33.5859 33.1011 33.5897C33.4024 33.5848 33.7012 33.6447 33.9773 33.7655C34.2534 33.8863 34.5002 34.0651 34.7011 34.2897C35.1217 34.7933 35.3521 35.4286 35.3521 36.0847C35.3521 36.7409 35.1217 37.3762 34.7011 37.8797ZM56.0511 36.1797C56.1096 35.1714 55.7845 34.1783 55.1411 33.3997C54.8172 33.081 54.4336 32.8293 54.0122 32.6593C53.5909 32.4892 53.1401 32.404 52.6857 32.4087C52.2313 32.4133 51.7823 32.5077 51.3645 32.6863C50.9467 32.865 50.5683 33.1244 50.2511 33.4497C49.5899 34.1639 49.2315 35.1067 49.2511 36.0797C49.236 36.5624 49.3166 37.0433 49.4882 37.4947C49.6599 37.946 49.9191 38.359 50.2511 38.7097C50.5725 39.0448 50.9619 39.3074 51.393 39.4799C51.8242 39.6523 52.2872 39.7307 52.7511 39.7097C53.4077 39.7225 54.0551 39.5529 54.6211 39.2197C55.1687 38.8945 55.6153 38.4237 55.9111 37.8597L54.7511 37.2897C54.6017 37.6024 54.3799 37.875 54.1041 38.0848C53.8284 38.2946 53.5065 38.4357 53.1654 38.4963C52.8242 38.5569 52.4734 38.5353 52.1423 38.4333C51.8111 38.3313 51.509 38.1518 51.2611 37.9097C51.0431 37.6989 50.871 37.4452 50.7557 37.1647C50.6404 36.8842 50.5844 36.5829 50.5911 36.2797H56.0011L56.0511 36.1797ZM50.7111 35.2497C50.8067 34.781 51.0524 34.3562 51.4111 34.0397C51.7612 33.7395 52.2099 33.5792 52.6711 33.5897C53.1861 33.5668 53.6915 33.7341 54.0911 34.0597C54.4336 34.3645 54.6421 34.7921 54.6711 35.2497H50.7111ZM69.8211 35.3797V35.3297C70.4915 35.2017 71.0982 34.849 71.5411 34.3297C71.9889 33.8178 72.2343 33.1599 72.2311 32.4797C72.2352 32.0777 72.1545 31.6793 71.9942 31.3106C71.834 30.9418 71.5978 30.611 71.3011 30.3397C70.699 29.7722 69.8983 29.4634 69.0711 29.4797H65.6711V39.5297H67.0011V35.4497H68.4011L71.1211 39.5297H72.6511V39.4697L69.8211 35.3797ZM67.0011 34.2397V30.6897H69.1711C69.4114 30.6812 69.6508 30.7241 69.8733 30.8155C70.0958 30.9068 70.2961 31.0447 70.4611 31.2197C70.624 31.3802 70.7531 31.5718 70.8407 31.783C70.9283 31.9943 70.9726 32.221 70.9711 32.4497C70.9762 32.6885 70.9297 32.9256 70.8347 33.1448C70.7398 33.364 70.5987 33.5601 70.4211 33.7197C70.0634 34.0612 69.5855 34.2481 69.0911 34.2397H67.0011ZM79.8011 36.1797C79.8596 35.1714 79.5345 34.1783 78.8911 33.3997C78.5672 33.081 78.1836 32.8293 77.7622 32.6593C77.3409 32.4892 76.8901 32.404 76.4357 32.4087C75.9813 32.4133 75.5323 32.5077 75.1145 32.6863C74.6967 32.865 74.3183 33.1244 74.0011 33.4497C73.3399 34.1639 72.9815 35.1067 73.0011 36.0797C72.986 36.5624 73.0666 37.0433 73.2382 37.4947C73.4099 37.946 73.6691 38.359 74.0011 38.7097C74.3244 39.0451 74.7155 39.3077 75.1483 39.4802C75.5811 39.6526 76.0457 39.7309 76.5111 39.7097C77.1644 39.7212 77.8082 39.5516 78.3711 39.2197C78.9207 38.8971 79.3679 38.4256 79.6611 37.8597L78.5111 37.2897C78.3699 37.6111 78.1534 37.8939 77.8801 38.1141C77.6067 38.3344 77.2844 38.4857 76.9403 38.5553C76.5962 38.6249 76.2404 38.6108 75.9029 38.5141C75.5654 38.4174 75.2561 38.241 75.0011 37.9997C74.785 37.7874 74.6142 37.5335 74.499 37.2534C74.3839 36.9732 74.3267 36.6726 74.3311 36.3697H79.7511L79.8011 36.1797ZM74.4711 35.2497C74.5504 34.7661 74.7941 34.3246 75.1611 33.9997C75.5131 33.7027 75.9606 33.5429 76.4211 33.5497C76.9363 33.5249 77.4424 33.6924 77.8411 34.0197C78.1836 34.3245 78.3921 34.7521 78.4211 35.2097L74.4711 35.2497ZM97.2511 36.1797C97.3096 35.1714 96.9845 34.1783 96.3411 33.3997C96.0172 33.081 95.6336 32.8293 95.2122 32.6593C94.7909 32.4892 94.3401 32.404 93.8857 32.4087C93.4313 32.4133 92.9823 32.5077 92.5645 32.6863C92.1467 32.865 91.7683 33.1244 91.4511 33.4497C90.7899 34.1639 90.4315 35.1067 90.4511 36.0797C90.436 36.5624 90.5166 37.0433 90.6882 37.4947C90.8599 37.946 91.1191 38.359 91.4511 38.7097C91.7725 39.0448 92.1619 39.3074 92.593 39.4799C93.0242 39.6523 93.4872 39.7307 93.9511 39.7097C94.6077 39.7225 95.2551 39.5529 95.8211 39.2197C96.3687 38.8945 96.8153 38.4237 97.1111 37.8597L96.0011 37.3297C95.8517 37.6424 95.6299 37.915 95.3541 38.1248C95.0784 38.3346 94.7565 38.4757 94.4154 38.5363C94.0742 38.5969 93.7234 38.5753 93.3923 38.4733C93.0611 38.3713 92.759 38.1918 92.5111 37.9497C92.2931 37.7389 92.121 37.4852 92.0057 37.2047C91.8904 36.9242 91.8344 36.6229 91.8411 36.3197H97.2611L97.2511 36.1797ZM91.9111 35.2497C92.0067 34.781 92.2524 34.3562 92.6111 34.0397C92.9612 33.7395 93.41 33.5792 93.8711 33.5897C94.3861 33.5668 94.8915 33.7341 95.2911 34.0597C95.6336 34.3645 95.8421 34.7921 95.8711 35.2497H91.9111Z" fill="#073937"/>
<path d="M47.8984 6.34044C47.1048 6.35808 46.3227 6.53491 45.5987 6.86044C44.8746 7.18596 44.2233 7.65356 43.6833 8.2355C43.1433 8.81744 42.7257 9.50188 42.4552 10.2482C42.1846 10.9946 42.0667 11.7877 42.1084 12.5804C42.0511 13.3765 42.1584 14.1759 42.4237 14.9286C42.689 15.6814 43.1065 16.3714 43.6502 16.9557C44.1939 17.54 44.8522 18.006 45.584 18.3246C46.3157 18.6432 47.1053 18.8077 47.9034 18.8077C48.7016 18.8077 49.4911 18.6432 50.2229 18.3246C50.9547 18.006 51.613 17.54 52.1567 16.9557C52.7004 16.3714 53.1179 15.6814 53.3832 14.9286C53.6484 14.1759 53.7558 13.3765 53.6984 12.5804C53.7402 11.7868 53.6219 10.993 53.3508 10.2459C53.0796 9.49894 52.6611 8.81405 52.1201 8.23197C51.5791 7.6499 50.9265 7.1825 50.2013 6.85756C49.4761 6.53262 48.693 6.35676 47.8984 6.34044ZM47.8984 16.3404C47.4352 16.3102 46.9826 16.1878 46.5673 15.9805C46.1519 15.7732 45.7821 15.4852 45.4794 15.1331C45.1767 14.7811 44.9474 14.3723 44.8047 13.9305C44.662 13.4888 44.6089 13.023 44.6484 12.5604C44.6484 10.3104 46.1484 8.78044 47.8984 8.78044C48.363 8.80805 48.8174 8.92858 49.2345 9.13489C49.6517 9.34119 50.0233 9.62908 50.3272 9.98152C50.6312 10.334 50.8614 10.7438 51.0041 11.1868C51.1469 11.6297 51.1994 12.0968 51.1584 12.5604C51.198 13.0248 51.1447 13.4924 51.0016 13.936C50.8586 14.3795 50.6286 14.7902 50.3251 15.1439C50.0217 15.4976 49.6508 15.7874 49.2341 15.9963C48.8175 16.2051 48.3634 16.3289 47.8984 16.3604V16.3404ZM60.3784 6.34044C59.5848 6.35808 58.8027 6.53491 58.0787 6.86044C57.3546 7.18596 56.7033 7.65356 56.1633 8.2355C55.6233 8.81744 55.2057 9.50188 54.9352 10.2482C54.6646 10.9946 54.5467 11.7877 54.5884 12.5804C54.5218 13.3812 54.622 14.1872 54.8828 14.9473C55.1435 15.7074 55.5591 16.4051 56.1032 16.9964C56.6474 17.5877 57.3083 18.0597 58.0442 18.3826C58.78 18.7054 59.5749 18.8721 60.3784 18.8721C61.182 18.8721 61.9769 18.7054 62.7127 18.3826C63.4486 18.0597 64.1095 17.5877 64.6536 16.9964C65.1978 16.4051 65.6134 15.7074 65.8741 14.9473C66.1348 14.1872 66.2351 13.3812 66.1684 12.5804C66.2101 11.7877 66.0922 10.9946 65.8217 10.2482C65.5512 9.50188 65.1335 8.81744 64.5936 8.2355C64.0536 7.65356 63.4023 7.18596 62.6782 6.86044C61.9542 6.53491 61.1721 6.35808 60.3784 6.34044ZM60.3784 16.3404C59.9148 16.3101 59.4618 16.1878 59.046 15.9807C58.6301 15.7735 58.2596 15.4856 57.9562 15.1337C57.6527 14.7819 57.4224 14.3731 57.2785 13.9313C57.1347 13.4895 57.0803 13.0235 57.1184 12.5604C57.0444 12.0895 57.0733 11.6082 57.2032 11.1495C57.333 10.6909 57.5606 10.2658 57.8704 9.90348C58.1802 9.54119 58.5648 9.25033 58.9978 9.05089C59.4307 8.85146 59.9018 8.74819 60.3784 8.74819C60.8551 8.74819 61.3261 8.85146 61.7591 9.05089C62.1921 9.25033 62.5767 9.54119 62.8865 9.90348C63.1963 10.2658 63.4239 10.6909 63.5537 11.1495C63.6835 11.6082 63.7124 12.0895 63.6384 12.5604C63.678 13.0248 63.6247 13.4924 63.4816 13.936C63.3386 14.3795 63.1086 14.7902 62.8051 15.1439C62.5017 15.4976 62.1308 15.7874 61.7141 15.9963C61.2975 16.2051 60.8434 16.3289 60.3784 16.3604V16.3404ZM75.4284 6.69044V7.64044H75.3384C74.9747 7.22284 74.5239 6.89003 74.0176 6.66543C73.5114 6.44083 72.9621 6.3299 72.4084 6.34044C70.9283 6.43075 69.5417 7.0943 68.5428 8.19027C67.5439 9.28623 67.0115 10.7283 67.0584 12.2104C67.025 13.681 67.5643 15.107 68.5626 16.1873C69.5608 17.2677 70.9398 17.9178 72.4084 18.0004C72.9654 18.0137 73.5182 17.9009 74.0256 17.6706C74.5329 17.4403 74.9817 17.0984 75.3384 16.6704H75.4284V17.5104C75.4284 19.7504 74.2884 20.9404 72.4284 20.9404C71.8048 20.918 71.2026 20.7073 70.701 20.336C70.1994 19.9648 69.822 19.4503 69.6184 18.8604L67.4884 19.7904C67.8665 20.7975 68.541 21.6663 69.4229 22.2822C70.3048 22.8981 71.3528 23.2322 72.4284 23.2404C75.3084 23.2404 77.7384 21.4804 77.7384 17.1604V6.69044H75.4284ZM72.6284 15.6904C72.1921 15.6663 71.765 15.5557 71.3717 15.3652C70.9785 15.1747 70.627 14.9079 70.3377 14.5805C70.0484 14.253 69.827 13.8713 69.6864 13.4576C69.5457 13.0439 69.4886 12.6064 69.5184 12.1704C69.4858 11.7313 69.5406 11.2901 69.6796 10.8723C69.8187 10.4545 70.0392 10.0684 70.3284 9.73642C70.6177 9.40441 70.9699 9.13305 71.3647 8.93806C71.7594 8.74307 72.189 8.62832 72.6284 8.60044C74.2884 8.60044 75.6284 10.1104 75.6284 12.1704C75.6284 14.2304 74.2884 15.7304 72.6284 15.7304V15.6904ZM82.2084 1.00044V18.8204H79.5384V1.00044H82.2084ZM88.8584 16.3704C88.252 16.385 87.6561 16.211 87.1527 15.8725C86.6494 15.534 86.2636 15.0476 86.0484 14.4804L93.7984 11.0004L93.5284 10.3004C93.0484 8.90044 91.5284 6.30044 88.5284 6.30044C85.5284 6.30044 83.0984 8.87044 83.0984 12.5804C83.0984 16.0704 85.5584 18.8104 88.8584 18.8104C89.8318 18.7994 90.7863 18.5401 91.6316 18.0572C92.4768 17.5742 93.1847 16.8835 93.6884 16.0504L91.6884 14.6304C91.413 15.1443 91.0057 15.5754 90.5082 15.8795C90.0108 16.1836 89.4413 16.3496 88.8584 16.3604V16.3704ZM88.6584 8.76044C89.1082 8.73765 89.5543 8.85156 89.938 9.08717C90.3218 9.32278 90.6252 9.66906 90.8084 10.0804L85.6284 12.4004C85.583 11.961 85.6258 11.5169 85.7542 11.0941C85.8827 10.6714 86.0942 10.2786 86.3764 9.93865C86.6585 9.59872 87.0057 9.31852 87.3976 9.11449C87.7895 8.91046 88.2181 8.78669 88.6584 8.75044V8.76044ZM32.2084 11.2204V8.67044H40.2084C40.2933 9.17929 40.3335 9.69459 40.3284 10.2104C40.4087 12.3966 39.6746 14.5347 38.2684 16.2104C37.5186 17.0732 36.5851 17.7572 35.5365 18.2123C34.4879 18.6674 33.3508 18.882 32.2084 18.8404C27.4184 18.8404 23.3984 14.6304 23.3984 9.48044C23.3984 4.33044 27.4184 0.100437 32.2084 0.100437C33.3338 0.084251 34.4498 0.30568 35.4837 0.750256C36.5176 1.19483 37.4461 1.85255 38.2084 2.68044L36.5284 4.48044C35.977 3.90103 35.3128 3.44065 34.5767 3.12765C33.8406 2.81464 33.0483 2.65564 32.2484 2.66044C28.7484 2.66044 26.0184 5.66044 26.0184 9.46044C26.0184 13.2604 28.7484 16.2604 32.2484 16.2604C33.0725 16.2892 33.8928 16.1367 34.6513 15.8135C35.4099 15.4904 36.0883 15.0046 36.6384 14.3904C37.3904 13.4962 37.8387 12.3861 37.9184 11.2204H32.2084Z" fill="#073937"/>
</svg>
