<?xml version="1.0" encoding="UTF-8"?>
<svg width="153px" height="23px" viewBox="0 0 153 23" version="1.1" xmlns="http://www.w3.org/2000/svg" xmlns:xlink="http://www.w3.org/1999/xlink">
    <!-- Generator: Sketch 55.2 (78181) - https://sketchapp.com -->
    <title>gr_fastco</title>
    <desc>Created with Sketch.</desc>
    <g id="Page-1" stroke="none" stroke-width="1" fill="none" fill-rule="evenodd">
        <g id="gr_fastco" transform="translate(-4.000000, -28.000000)">
            <g id="Group" transform="translate(14.000000, 28.000000)"></g>
            <rect id="Rectangle" x="0" y="0" width="160" height="80"></rect>
            <path d="M76.7061,34.2158684 C76.7061,37.3257684 76.3962,46.9580384 76.3962,46.9580384 C76.3962,48.8225384 77.0125,49.6528384 78.7571,49.6528384 L78.7571,50.4830384 L71.8866,50.4830384 L71.8866,49.6492384 C73.6278,49.6492384 74.554,48.8225384 74.554,46.9545384 L75.1704,31.2079884 C74.655,29.9696584 74.1431,29.5510084 72.8094,29.4489884 L72.8094,28.7242854 L78.0398,28.7242854 L83.5766,43.4365384 L89.2178,28.7242854 L93.9328,28.7242854 L93.9328,29.4489884 C92.5991,29.4489884 91.8818,30.0716784 91.8818,31.5210884 L92.4981,46.7504384 C92.4981,49.0266384 92.9055,49.6492384 94.7511,49.6492384 L94.7511,50.4795384 L86.8534,50.4795384 L86.8534,49.6492384 C88.3925,49.6492384 89.1099,49.1356384 89.0089,46.7504384 C89.0089,46.7504384 88.7025,36.0803984 88.598,34.2158684 L84.8023,44.7839384 C84.2338,46.2731384 83.7547,47.7956384 83.3676,49.3432384 L82.1349,49.4452384 C81.8285,48.3054384 81.0067,46.2333384 81.0067,46.2333384 C81.0067,46.2333384 77.8343,37.2202284 76.7061,34.2158684 Z M70.243,50.5850384 C69.8321,50.4830384 69.4247,50.4830384 69.0103,50.4830384 C68.192,50.4830384 66.7538,50.8946384 65.0126,50.8946384 C58.3476,50.8946384 53.4237,46.8560384 53.4237,39.3943384 C53.4237,33.0760384 58.0377,28.2036234 65.1136,28.2036234 C66.7538,28.2036234 68.5994,28.5167244 70.1385,29.1394084 C70.445,28.8263074 70.5494,28.6222634 70.8559,28.3091624 L71.4722,28.3091624 C71.3713,29.4489884 70.9603,33.1815784 70.9603,33.1815784 L70.344,33.1815784 C69.9331,31.0039384 68.8083,29.5545284 65.2181,29.5545284 C60.9106,29.5545284 57.0139,32.9740184 57.0139,39.2958384 C57.0139,46.4444384 61.0115,49.5507384 65.4236,49.5507384 C68.2964,49.5507384 70.0375,47.8938384 71.1658,45.8217384 L71.8831,46.1313384 L70.243,50.5850384 L70.243,50.5850384 Z M50.8642,32.7629384 L50.1469,32.7629384 C50.0459,30.7928584 49.4295,30.1736984 47.8904,30.1736984 L44.9165,30.1736984 L44.9165,46.4408384 C44.9165,49.1356384 45.4284,49.6492384 47.173,49.6492384 L47.173,50.4795384 L39.4842,50.4795384 L39.4842,49.6492384 C41.2253,49.6492384 41.7407,49.1356384 41.7407,46.3353384 L41.7407,30.1736984 L38.7634,30.1736984 C36.8133,30.1736984 36.5069,30.6908384 35.995,32.7629384 L35.2742,32.7629384 L35.7861,28.1016014 L36.298,28.2036234 C36.5034,28.7207674 36.9143,28.7207674 38.1436,28.7207674 L48.0889,28.7207674 C49.9345,28.7207674 50.3454,28.7207674 50.7563,28.0980835 L51.3726,28.0980835 L50.8642,32.7629384 L50.8642,32.7629384 Z" id="Shape" fill="#000000" fill-rule="nonzero"></path>
            <path d="M29.1245,50.9970384 C27.6863,50.9970384 26.5616,50.7895384 25.7397,50.4834384 C25.1243,50.3370384 24.5364,50.0911384 23.9986,49.7552384 C23.7267,50.0396384 23.4851,50.3520384 23.2778,50.6875384 L22.6614,50.4834384 L23.1733,45.6110384 L23.8907,45.7130384 C24.3016,47.9927384 25.8407,49.6497384 29.0165,49.6497384 C31.4785,49.6497384 33.1187,47.5776384 33.1187,45.3014384 C33.1187,43.4369384 32.4013,42.5046384 29.9393,40.6401384 C29.1245,40.1194384 28.4072,39.7043384 27.7908,39.1907384 C25.5343,37.7377884 24.0961,36.0808184 24.0961,33.3860384 C24.0961,30.2761384 26.6591,28.2040434 30.0438,28.2040434 C31.9939,28.2040434 33.2231,28.8267274 33.634,29.0307684 L34.3549,28.2040434 L34.8667,28.3060644 L34.3549,32.7633584 L33.634,32.6613284 C33.634,30.5892384 32.4048,29.6569684 30.3537,29.6569684 C28.4072,29.6569684 26.969,30.6947784 26.969,32.6613284 C26.969,34.4203284 28.3027,35.5601584 29.8418,36.5979584 C30.6602,37.1151084 31.2765,37.5302284 31.8929,37.9453484 C35.4831,40.5345384 36.3014,42.1915384 36.3014,44.6787384 C36.3014,48.3023384 33.533,50.9970384 29.1245,50.9970384 L29.1245,50.9970384 Z M17.4311,32.7633584 L16.6127,32.7633584 C16.6127,30.8988184 15.7909,30.1741184 14.1508,30.1741184 L9.53679,30.1741184 L9.53679,38.3569384 L12.51064,38.3569384 C14.0498,38.3569384 14.3562,37.5302284 14.5617,36.1828384 L15.279,36.1828384 L15.279,41.9840384 L14.5617,41.9840384 C14.3562,40.4325384 14.0498,39.8098384 12.40966,39.8098384 L9.53679,39.8098384 L9.53679,46.7508384 C9.53679,49.3401384 10.15315,49.6497384 11.7933,49.6497384 L11.7933,50.4799384 L4,50.4799384 L4,49.6497384 C5.94658,49.6497384 6.25302,49.1360384 6.25302,46.7508384 L6.25302,31.5215084 C6.25302,30.0720984 5.63666,29.4494084 4,29.4494084 L4,28.7247054 L14.6627,28.7247054 C16.5083,28.7247054 16.9157,28.6226834 17.2256,28 L17.943,28 L17.4311,32.7633584 L17.4311,32.7633584 Z M128.08,34.0087184 L128.08,46.4412384 C128.08,49.1360384 128.696,49.6497384 130.336,49.6497384 L130.336,50.4799384 L118.236,50.4799384 L118.236,49.6497384 C119.158,49.6497384 119.977,49.3401384 119.977,48.7174384 C119.977,48.3023384 119.876,47.5776384 119.67,46.8529384 L118.744,43.8485384 L111.978,43.8485384 C111.877,44.2601384 110.644,47.6796384 110.644,48.6118384 C110.644,49.4386384 111.567,49.6461384 112.183,49.6461384 L112.183,50.4764384 L106.542,50.4764384 L106.542,49.6497384 C107.566,49.6497384 108.388,49.5476384 109.105,47.3735384 L114.335,30.4872184 C114.032,29.7589984 113.622,29.5514284 112.904,29.4494084 L112.904,28.7247054 L117.518,28.7247054 L123.055,46.4412384 C123.567,48.3023384 124.079,49.2380384 124.901,49.6497384 C126.13,49.2380384 126.436,48.8229384 126.436,46.4412384 L126.436,31.5215084 C125.513,30.2761384 125.412,29.4494084 123.668,29.4494084 L123.668,28.7247054 L128.898,28.7247054 L137.513,43.5389384 L137.513,32.2462084 C137.513,29.9700684 137.001,29.4494084 135.257,29.4494084 L135.257,28.7247054 L146.741,28.7247054 L146.741,29.4494084 C146.024,29.4494084 145.408,29.7589984 145.408,30.4872184 C145.408,31.0008384 145.613,31.5215084 145.815,32.1441884 L149.095,39.2927384 L152.275,32.3482284 C152.786,31.4159684 152.891,30.8988184 152.891,30.3816784 C152.891,29.7589984 152.48,29.4494084 151.557,29.4494084 L151.557,28.7247054 L156.993,28.7247054 L156.993,29.4494084 C155.659,29.4494084 154.841,30.6947784 154.225,32.1441884 L150.022,40.8476384 L150.022,46.5468384 C150.022,49.0305384 150.638,49.6532384 152.275,49.6532384 L152.275,50.4834384 L144.481,50.4834384 L144.481,49.6497384 C146.125,49.6497384 146.738,49.0270384 146.738,46.5433384 L146.738,41.6744384 L142.225,32.0421684 C141.406,30.1776384 141.097,29.7625084 140.585,29.4529284 C139.561,29.8680484 139.251,30.5927584 139.251,32.2497284 L139.251,48.2038384 C139.251,48.2038384 139.352,49.4491384 139.456,50.8985384 L138.123,51.0006384 L128.08,34.0087184 L128.08,34.0087184 Z M115.262,32.9709184 L112.392,42.3991384 L118.34,42.3991384 L115.262,32.9709184 L115.262,32.9709184 Z" id="Shape" fill="#000000" fill-rule="nonzero"></path>
            <path d="M102.548,42.3987384 L101.0088,42.3987384 L101.0088,46.8560384 C101.0088,49.1356384 101.6252,49.6528384 103.3663,49.6528384 L103.3663,50.4830384 L95.4686,50.4830384 L95.4686,49.6493384 C97.1122,49.6493384 97.7251,49.0266384 97.7251,46.7504384 L97.7251,32.1437884 C97.7251,29.8676484 97.1122,29.4490084 95.4686,29.4490084 L95.4686,28.7243044 L101.4163,28.7243044 C107.159,28.7243044 110.543003,30.4868184 110.543003,35.2501784 C110.547,40.2246384 106.445,42.3987384 102.548,42.3987384 L102.548,42.3987384 Z M101.5207,30.1737184 L101.0088,30.1737184 L101.0088,40.8437384 L101.9316,40.8437384 C105.316,40.8437384 107.061,39.2923384 107.061,35.3521984 C107.061,31.4120484 105.518,30.1737184 101.5207,30.1737184 Z M66.7573,46.3353384 C62.8607,46.3353384 60.1968,43.5385384 60.1968,39.4999384 C60.1968,35.6652984 62.9651,32.6644484 66.7573,32.6644484 C70.4485,32.6644484 73.2169,35.5632784 73.2169,39.4999384 C73.2169,43.3310384 70.3475,46.3353384 66.7573,46.3353384 Z M66.7573,33.9062984 C64.0899,33.9062984 63.1671,36.4955384 63.1671,39.4999384 C63.1671,42.2967384 63.9889,45.0970384 66.7573,45.0970384 C69.4247,45.0970384 70.2431,42.2967384 70.2431,39.3978384 C70.2431,36.5975684 69.2193,33.9062984 66.7573,33.9062984 L66.7573,33.9062984 Z M21.6377,45.0935384 L21.6377,44.3652384 C22.6615,44.3652384 22.8669,44.0557384 22.8669,43.7461384 C22.8595,43.3906384 22.7899,43.0393384 22.6615,42.7083384 C22.6615,42.7083384 22.456,41.8815384 22.2506,41.2589384 L18.2529,41.2589384 L17.8455,42.6063384 C17.7174,42.9361384 17.6478,43.2863384 17.6401,43.6405384 C17.6401,44.0557384 18.051,44.3652384 18.6638,44.3652384 L18.6638,45.0935384 L14.6627,45.0935384 L14.6627,44.3652384 C15.6865,44.3652384 16.0974,44.0557384 16.5083,42.9158384 L19.5866,33.5931984 C19.4822,33.1815984 19.1757,32.8684984 18.5629,32.8684984 L18.5629,32.1437884 L21.8431,32.1437884 C24.5106,40.0170384 25.2279,42.0891384 25.2279,42.0891384 C25.7398,43.8516384 26.2517,44.3652384 27.0735,44.3652384 L27.0735,45.0935384 L21.6377,45.0935384 L21.6377,45.0935384 Z M20.1995,35.0426084 L18.6638,40.1190384 L21.8431,40.1190384 L20.1995,35.0426084 L20.1995,35.0426084 Z" id="Shape" fill="#000000" fill-rule="nonzero"></path>
        </g>
    </g>
</svg>