<svg xmlns="http://www.w3.org/2000/svg" width="538" height="190" fill-rule="evenodd"><path d="M29.762 153.952h1.62c1.516 0 2.65-.3 3.403-.898s1.13-1.47 1.13-2.616c0-1.155-.316-2.008-.946-2.56s-1.62-.827-2.965-.827h-2.242v6.9zm11.13-3.7c0 2.502-.782 4.415-2.345 5.74S34.76 158 31.877 158h-2.115v8.267h-4.93v-23.244h7.425c2.82 0 4.963.606 6.43 1.82s2.202 3.024 2.202 5.43zm10.944 3.07h1.6c1.558 0 2.708-.26 3.45-.78S58 151.216 58 150.104c0-1.102-.378-1.887-1.136-2.353s-1.932-.7-3.522-.7h-1.494v6.28zm0 4.007v8.92h-4.93v-23.244h6.773c3.16 0 5.496.575 7.012 1.725s2.273 2.896 2.273 5.24c0 1.367-.376 2.584-1.13 3.65s-1.818 1.9-3.196 2.504l6.837 10.128h-5.47l-5.55-8.92h-2.623zm18.196 8.92h4.928v-23.244h-4.928zM95.7 143.014h4.976l-7.902 23.244H87.4l-7.886-23.244H84.5l4.372 13.832.755 2.854.485 2.266c.117-.976.514-2.68 1.193-5.12l4.404-13.832m20.887 13.576l-2.63-8.506-.422-1.56c-.35 1.357-1.35 4.712-3.004 10.065h6.057zm2.862 9.666l-1.686-5.533H109.3l-1.685 5.533h-5.3l8.203-23.34h6.026l8.236 23.34h-5.3zm19.738-19.476c-1.855 0-3.3.697-4.3 2.1s-1.526 3.336-1.526 5.827c0 5.183 1.945 7.774 5.835 7.774 1.632 0 3.6-.407 5.93-1.224v4.134c-1.908.795-4.038 1.192-6.4 1.192-3.38 0-5.967-1.025-7.76-3.077s-2.687-4.994-2.687-8.832c0-2.417.44-4.534 1.32-6.352s2.144-3.212 3.792-4.18 3.58-1.455 5.795-1.455c2.257 0 4.526.546 6.805 1.638l-1.6 4.007a26.33 26.33 0 00-2.624-1.082 7.83 7.83 0 00-2.59-.46m19.746 5.805l4.85-9.57h5.3l-7.7 14.197v9.047h-4.896v-8.887l-7.7-14.356h5.342l4.817 9.57m19.093 10.254c-.55 2.14-1.484 4.68-2.798 7.615h-3.498l1.606-7.98h4.452l.238.366m30.507-3.038c0 2.098-.755 3.752-2.266 4.96s-3.612 1.813-6.304 1.813c-2.48 0-4.674-.466-6.582-1.4v-4.58c1.568.7 2.896 1.192 3.983 1.48s2.08.43 2.98.43c1.082 0 1.9-.207 2.488-.62s.867-1.028.867-1.844a2.04 2.04 0 00-.381-1.216c-.254-.355-.628-.697-1.12-1.025s-1.497-.853-3.013-1.574c-1.42-.668-2.486-1.3-3.196-1.924s-1.277-1.33-1.7-2.146-.636-1.77-.636-2.862c0-2.056.697-3.672 2.1-4.85s3.32-1.765 5.78-1.765c1.2 0 2.36.143 3.458.43s2.245.7 3.442 1.2l-1.6 3.832c-1.24-.5-2.266-.864-3.077-1.065s-1.6-.303-2.393-.303c-.933 0-1.648.218-2.146.652s-.747 1.002-.747 1.7c0 .435.1.814.302 1.137s.522.636.962.938 1.48.845 3.124 1.63c2.173 1.04 3.662 2.08 4.467 3.124s1.2 2.324 1.2 3.84m19.236 6.453h-13.387v-23.244h13.387v4.038h-8.458v5.104h7.87v4.038h-7.87v5.994h8.458v4.07m16.35-19.478c-1.855 0-3.3.697-4.3 2.1s-1.527 3.336-1.527 5.827c0 5.183 1.945 7.774 5.835 7.774 1.632 0 3.6-.407 5.93-1.224v4.134c-1.908.795-4.038 1.192-6.4 1.192-3.382 0-5.967-1.025-7.76-3.077s-2.687-4.994-2.687-8.832c0-2.417.44-4.534 1.32-6.352s2.144-3.212 3.792-4.18 3.58-1.455 5.796-1.455c2.257 0 4.526.546 6.805 1.638l-1.6 4.007a26.33 26.33 0 00-2.624-1.082 7.83 7.83 0 00-2.59-.46m31.433-3.766v15.04c0 1.716-.384 3.222-1.153 4.515s-1.88 2.284-3.332 2.973-3.17 1.034-5.15 1.034c-3 0-5.3-.766-6.964-2.297s-2.48-3.628-2.48-6.288v-14.977h4.913v14.23c0 1.8.36 3.105 1.08 3.943s1.913 1.256 3.577 1.256c1.6 0 2.78-.422 3.506-1.264s1.1-2.165 1.1-3.968v-14.197h4.913m12.248 10.318h1.6c1.558 0 2.708-.26 3.45-.78s1.112-1.336 1.112-2.448c0-1.102-.378-1.887-1.136-2.353s-1.932-.7-3.522-.7h-1.494v6.28zm0 4.007v8.92h-4.93v-23.244h6.773c3.158 0 5.496.575 7.012 1.725s2.273 2.896 2.273 5.24c0 1.367-.377 2.584-1.13 3.65s-1.818 1.9-3.196 2.504l6.837 10.128h-5.47l-5.55-8.92H287.8zm18.195 8.92h4.928v-23.244h-4.928zm21.375 0h-4.93v-19.142h-6.3v-4.102h17.552v4.102h-6.312v19.142m18.75-13.673l4.85-9.57h5.3l-7.7 14.197v9.047h-4.898v-8.887l-7.7-14.356h5.342l4.818 9.57m33.997-4.342c0-.562-.2-1.004-.573-1.328s-.874-.485-1.478-.485c-.7 0-1.27.17-1.678.5s-.612.82-.612 1.447c0 .933.503 1.96 1.5 3.084.912-.5 1.612-1 2.1-1.503s.732-1.067.732-1.725zm-5.708 11.273c0 .9.342 1.638 1.026 2.178s1.56.8 2.63.8c1.336 0 2.538-.323 3.6-.97l-5.278-5.246c-.615.466-1.1.954-1.455 1.463s-.533 1.097-.533 1.764zm18.014 6.74h-5.994l-1.828-1.796c-2.024 1.4-4.313 2.115-6.868 2.115-2.586 0-4.637-.594-6.152-1.78s-2.273-2.793-2.273-4.818c0-1.452.32-2.7.96-3.712s1.742-1.98 3.3-2.87c-.795-.9-1.373-1.783-1.733-2.615a6.79 6.79 0 01-.541-2.727c0-1.6.618-2.9 1.852-3.895s2.886-1.48 4.953-1.48c1.97 0 3.548.46 4.73 1.375s1.772 2.144 1.772 3.68a5.89 5.89 0 01-1.097 3.458c-.732 1.045-1.913 2.038-3.545 2.98l4.515 4.405c.753-1.24 1.404-2.835 1.955-4.786h5.056a22.88 22.88 0 01-1.574 4.189c-.668 1.362-1.426 2.568-2.274 3.617l4.786 4.658zm23.607.001h-4.93v-19.142h-6.3v-4.102H422.3v4.102h-6.312v19.142m16.455-12.926h1.6c1.558 0 2.708-.26 3.45-.78s1.113-1.336 1.113-2.448c0-1.102-.38-1.887-1.137-2.353s-1.932-.7-3.52-.7h-1.495v6.28zm0 4.007v8.92h-4.928v-23.244h6.773c3.158 0 5.496.575 7.012 1.725s2.273 2.896 2.273 5.24c0 1.367-.376 2.584-1.13 3.65s-1.818 1.9-3.196 2.504l6.836 10.128h-5.47l-5.548-8.92h-2.624zm37.115-14.325v15.04c0 1.716-.384 3.222-1.153 4.515s-1.88 2.284-3.33 2.973-3.17 1.034-5.15 1.034c-3 0-5.3-.766-6.963-2.297s-2.48-3.628-2.48-6.288v-14.977h4.913v14.23c0 1.8.36 3.105 1.08 3.943s1.914 1.256 3.577 1.256c1.612 0 2.78-.422 3.506-1.264s1.1-2.165 1.1-3.968v-14.197h4.913m21.04 16.79c0 2.098-.754 3.752-2.265 4.96s-3.612 1.813-6.304 1.813c-2.48 0-4.674-.466-6.582-1.4v-4.58c1.568.7 2.895 1.192 3.983 1.48s2.08.43 2.98.43c1.082 0 1.9-.207 2.5-.62s.866-1.028.866-1.844c0-.456-.127-.86-.38-1.216s-.627-.697-1.12-1.025-1.497-.853-3.013-1.574c-1.42-.668-2.485-1.3-3.196-1.924a7.18 7.18 0 01-1.7-2.146c-.423-.816-.636-1.77-.636-2.862 0-2.056.697-3.672 2.1-4.85s3.32-1.765 5.78-1.765c1.2 0 2.36.143 3.458.43a23.69 23.69 0 013.442 1.209l-1.6 3.832c-1.24-.5-2.266-.864-3.077-1.065a9.9 9.9 0 00-2.393-.303c-.932 0-1.648.218-2.146.652s-.747 1.002-.747 1.7c0 .435.1.814.302 1.137s.522.636.962.938 1.48.845 3.124 1.63c2.172 1.04 3.662 2.08 4.468 3.124s1.207 2.324 1.207 3.84m14.815 6.454h-4.93v-19.142h-6.3v-4.102h17.553v4.102h-6.312v19.142" fill="#707e86"/><path d="M59.906 96.415c-8.724 0-15.45-2.797-19.997-8.314-4.6-5.57-6.918-13.913-6.918-24.8 0-10.737 2.328-19.004 6.918-24.574 4.546-5.516 11.312-8.313 20.1-8.313 8.756 0 15.444 2.776 19.88 8.25 4.48 5.535 6.754 13.824 6.754 24.637 0 10.925-2.282 19.28-6.782 24.834-4.454 5.494-11.17 8.28-19.964 8.28zM60.02 20c-12.4 0-22.1 3.83-28.864 11.38C24.416 38.903 21 49.604 21 63.2c0 13.695 3.406 24.472 10.124 32.03 6.744 7.6 16.428 11.44 28.783 11.44 12.1 0 21.68-3.916 28.502-11.64 6.8-7.7 10.234-18.36 10.234-31.718 0-13.394-3.434-24.066-10.207-31.72C81.634 23.897 72.073 20 60.02 20zm83.852 20.795c-4.365 0-8.387.875-11.955 2.6-3.07 1.485-5.586 3.518-7.5 6.054l-1.355-7.527h-9.304v63.6h11.202V72.205c0-7.776 1.44-13.393 4.285-16.698 2.808-3.264 7.35-4.92 13.5-4.92 4.593 0 7.986 1.15 10.085 3.422 2.118 2.292 3.193 5.873 3.193 10.643v40.878h11.202V64.316c0-8.114-1.992-14.13-5.92-17.884-3.918-3.74-9.783-5.637-17.43-5.637m65.198 9.68c4.64 0 8.094 1.43 10.562 4.375 2.338 2.8 3.587 6.836 3.717 12.036h-30.327c.6-5.003 2.245-8.992 4.867-11.865 2.8-3.06 6.448-4.546 11.18-4.546zm.112-9.68c-8.513 0-15.397 3.07-20.46 9.122-5.023 6.005-7.57 14.186-7.57 24.318 0 10.08 2.75 18.086 8.17 23.796 5.434 5.726 12.93 8.63 22.282 8.63 4.215 0 7.872-.32 10.87-.95s6.214-1.682 9.56-3.126l.558-.24v-10.35l-1.287.55c-6.352 2.717-12.866 4.096-19.36 4.096-6.015 0-10.725-1.796-14.002-5.34-3.15-3.406-4.904-8.436-5.214-14.96h42.512V69.5c0-8.533-2.353-15.518-6.995-20.76-4.67-5.274-11.084-7.947-19.063-7.947zm31.255-9.142h26.1v73.88h11.428v-73.88h26.1V21.296h-63.6v10.358m101.842 9.14a19.64 19.64 0 00-11.167 3.426c-2.844 1.918-5.36 4.552-7.498 7.845l-.95-10.144H313.2v63.6h11.202v-34.06c0-5.8 1.715-10.686 5.097-14.55 3.397-3.883 7.364-5.77 12.125-5.77 1.877 0 4.086.277 6.563.824l.967.213 1.572-10.52-.856-.177c-2.23-.46-4.778-.695-7.57-.695m59.657 34.508c0 7.74-1.434 13.36-4.262 16.703-2.8 3.298-7.32 4.97-13.468 4.97-4.592 0-7.986-1.15-10.085-3.422-2.118-2.3-3.2-5.873-3.2-10.644V41.92h-11.316v41.33c0 8.08 1.983 14.067 5.893 17.8 3.897 3.722 9.8 5.6 17.517 5.6 4.473 0 8.522-.845 12.032-2.513 3.035-1.44 5.534-3.457 7.446-6.003l1.206 7.4h9.43V41.92h-11.202v33.384m51.57-6.67c-5.266-1.965-8.863-3.48-10.692-4.505-1.75-.98-3.025-2-3.8-3.062-.734-1.012-1.1-2.217-1.1-3.684 0-2.118.963-3.74 2.942-4.96 2.097-1.292 5.308-1.948 9.546-1.948 4.9 0 10.44 1.266 16.498 3.762l.836.345 4.06-9.3-.857-.366c-6.435-2.74-13.117-4.13-19.86-4.13-7.3 0-13.15 1.527-17.385 4.538-4.334 3.08-6.53 7.345-6.53 12.67 0 2.97.64 5.573 1.9 7.735 1.25 2.144 3.17 4.076 5.7 5.744 2.468 1.627 6.655 3.546 12.434 5.698 5.928 2.284 9.948 4.272 11.946 5.9 1.877 1.54 2.8 3.324 2.8 5.456 0 2.87-1.142 4.94-3.492 6.334-2.473 1.467-6.107 2.2-10.8 2.2-3.066 0-6.298-.427-9.606-1.27-3.318-.843-6.47-2.013-9.36-3.478l-1.342-.68v10.72l.47.265c4.703 2.66 11.302 4.008 19.615 4.008 7.904 0 14.154-1.633 18.577-4.854 4.515-3.288 6.805-8.013 6.805-14.047 0-4.32-1.384-7.966-4.114-10.837-2.698-2.835-7.67-5.547-15.196-8.287M515.262 96c-.863.252-2.057.5-3.55.735a29.71 29.71 0 01-4.644.356c-2.83 0-4.982-.875-6.578-2.676-1.603-1.807-2.416-4.482-2.416-7.952V51.04h17.92v-9.12h-17.92V27.608h-7.022l-4.02 13.436-9.008 3.96v6.035h8.847v35.818c0 13.14 6.34 19.802 18.844 19.802 1.614 0 3.456-.164 5.473-.5 2.083-.338 3.632-.76 4.733-1.292l.523-.252v-8.97l-1.182.345" fill="#67b54c"/></svg>