<svg width="130" height="32" viewBox="0 0 130 32" fill="none" xmlns="http://www.w3.org/2000/svg">
<path d="M68.5725 14.1089C64.8096 14.1089 61.9212 17.0766 61.9212 20.654C61.9212 24.2578 64.8096 27.2255 68.5725 27.2255C72.309 27.2255 75.1969 24.2578 75.1969 20.654C75.1969 17.0766 72.3085 14.1089 68.5725 14.1089ZM68.5725 24.9467C66.1081 24.9467 64.3856 22.9857 64.3856 20.654C64.3856 18.3752 66.1081 16.3877 68.5725 16.3877C71.0105 16.3877 72.7595 18.3752 72.7595 20.654C72.759 22.9862 71.01 24.9467 68.5725 24.9467Z" fill="#073937"/>
<path d="M113.121 14.1089C109.465 14.1089 106.735 17.1295 106.735 20.6275C106.735 24.1256 109.279 27.2255 113.44 27.2255C115.401 27.2255 116.911 26.563 118.077 25.5828L117.07 23.7544C116.143 24.5227 114.844 25.0794 113.414 25.0794C111.056 25.0794 109.439 23.5424 109.121 21.4227H119.482C119.508 21.1578 119.508 20.8665 119.508 20.6545C119.507 16.9444 116.964 14.1089 113.121 14.1089ZM109.173 19.6208C109.545 17.6069 111.187 16.3084 113.175 16.3084C115.401 16.3084 116.858 17.6069 117.123 19.6208H109.173Z" fill="#073937"/>
<path d="M84.1353 14.1089C82.3069 14.1089 80.6108 14.9305 79.8425 17.8454H79.657V14.3473H77.4575V26.9342H79.8425V20.3891C79.8425 17.6598 81.1146 16.3877 83.2872 16.3877C85.354 16.3877 86.5198 17.58 86.5198 20.0708V26.9337H88.9313V19.8593C88.9318 15.6459 86.5997 14.1089 84.1353 14.1089Z" fill="#073937"/>
<path d="M128.502 14.1089C126.462 14.1089 125.057 14.8771 124.262 17.7656H124.103V14.3473H121.851V26.9342H124.236V20.0444C124.236 17.58 125.799 16.4141 128.714 16.4141H129.138V14.1089H128.502Z" fill="#073937"/>
<path d="M101.98 14.6123C101.98 15.4339 102.033 16.0166 102.086 17.5801H101.9C101.105 14.7445 99.0648 14.1089 97.3956 14.1089C93.8976 14.1089 91.1419 16.9176 91.1419 20.6276C91.1419 24.3376 93.8976 27.1727 97.2629 27.1727C99.012 27.1727 100.999 26.4044 101.953 23.6218H102.112V26.9342H104.391V9.18018H101.98V14.6123H101.98ZM97.7673 24.9203C95.4091 24.9203 93.6072 22.9857 93.6072 20.6276C93.6072 18.2695 95.4356 16.3613 97.7673 16.3613C100.126 16.3613 101.981 18.269 101.981 20.6276C101.98 23.0127 100.125 24.9203 97.7673 24.9203Z" fill="#073937"/>
<path d="M54.5929 11.5123C55.8915 11.5123 57.2693 11.9892 58.4087 13.0493L59.9986 11.221C58.2232 9.65753 56.3419 9.15417 54.6723 9.15417C51.4127 9.15417 49.1339 11.0618 49.1339 13.8974C49.1339 16.3089 50.7766 17.7396 52.393 18.4021L55.1487 19.5944C56.2881 20.0713 57.4539 20.9723 57.4539 22.3766C57.4539 23.7544 56.3674 24.9467 54.2477 24.9467C52.5516 24.9467 51.1209 24.1785 49.9286 23.0121L48.3916 24.8405C50.0877 26.5895 52.1011 27.3049 54.1949 27.3049C57.7987 27.3049 59.9981 25.2116 59.9981 22.2439C59.9981 19.2761 57.8251 17.8983 56.1559 17.2093L53.6122 16.1493C52.3934 15.6459 51.6776 14.8243 51.6776 13.7378C51.6781 12.4133 52.7646 11.5123 54.5929 11.5123Z" fill="#073937"/>
<path d="M29.9495 0C26.4135 0 23.5847 1.55575 21.216 4.38455L0.353841 29.2419C0.141825 29.5246 0 29.6659 0 29.8784C0 30.1611 0.282688 30.3024 0.53028 30.2322L1.76776 29.8077C4.49032 28.8885 6.29366 28.5702 8.20324 28.5702C14.108 28.5702 15.169 32 21.6045 32C29.7371 32 36.2076 26.8376 36.2076 19.0233C36.2076 16.3714 35.536 14.3556 33.6264 11.209L32.3889 9.15852L32.813 8.734C34.1923 7.35518 36.4552 5.94078 38.1874 5.23358C38.4701 5.12733 38.5412 4.84464 38.3643 4.63262C36.4201 2.05045 34.0509 0 29.9495 0ZM9.12294 26.4837C7.70854 26.4837 6.25856 26.6962 4.84464 27.1909L9.4412 21.6752C9.79504 23.3722 10.4667 25.1049 11.5277 26.7313C10.7143 26.5544 9.93639 26.4837 9.12294 26.4837ZM20.7208 29.8784C15.3464 29.8784 11.4566 24.5746 11.4566 19.3411L21.4987 7.38979C21.4631 7.67248 21.4631 7.92007 21.4631 8.20324C21.4631 10.5724 22.6655 12.871 24.0088 15.0983L25.3525 17.3613C26.59 19.4473 27.651 21.4982 27.651 23.4785C27.651 26.7664 24.8578 29.8784 20.7208 29.8784ZM30.9745 7.63739L30.4087 8.20324C29.9491 8.66285 29.9491 9.08736 30.1967 9.51188L31.6111 11.9517C32.8841 14.144 34.086 16.4421 34.086 19.1295C34.086 23.3371 31.5048 26.5198 27.6505 28.7121C29.1356 26.9794 29.7721 25.2823 29.7721 23.479C29.7721 20.9333 28.5702 18.5992 27.1554 16.2305L25.5996 13.6137C24.4679 11.7397 23.5843 9.90081 23.5843 7.95661C23.5843 4.77397 25.9535 2.12208 29.9491 2.12208C32.0351 2.12208 34.0504 2.82928 35.2884 4.38503C34.1572 4.94993 32.3183 6.29366 30.9745 7.63739Z" fill="#073937"/>
</svg>
