<svg width="18" height="18" xmlns="http://www.w3.org/2000/svg" viewBox="0 0 24 24" class="Icon_icon__qr5nN" aria-hidden="true"><path d="M11.78 16H2.22A2.38 2.38 0 0 0 0 18.63V24h1v-5.37c0-.79.38-1.63 1.22-1.63h9.56c.84 0 1.22.84 1.22 1.63V24h1v-5.37A2.38 2.38 0 0 0 11.78 16ZM22 18h-1v-5.37c0-.79-.38-1.64-1.22-1.64h-7.89V10h7.89A2.39 2.39 0 0 1 22 12.63V18ZM7 6a4 4 0 1 0 0 8 4 4 0 0 0 0-8Zm0 7a3.05 3.05 0 1 1 3-3 3 3 0 0 1-3 3Zm9-13a4 4 0 1 0 0 8 4 4 0 0 0 0-8Zm0 7a3 3 0 1 1 0-6 3 3 0 0 1 0 6Z"></path></svg>