<svg width="18" height="18" xmlns="http://www.w3.org/2000/svg" viewBox="0 0 24 24" class="Icon_icon__qr5nN DateRangePickerInput_icon__w2G2x" aria-hidden="true"><path d="M24 4.39A1.4 1.4 0 0 0 22.61 3H18V0h-1v3H7V0H6v3H1.4A1.4 1.4 0 0 0 0 4.41v18.2A1.4 1.4 0 0 0 1.4 24h21.21A1.4 1.4 0 0 0 24 22.6ZM1 4.4a.4.4 0 0 1 .4-.4h21.21a.4.4 0 0 1 .39.39V9H1Zm0 18.22V17.5h5V23H1.4a.39.39 0 0 1-.4-.38Zm10.5.38H7v-5.5h4.5Zm1-5.5H17V23h-4.5ZM23 22.6a.39.39 0 0 1-.39.39H18V17.5h5Zm0-6.1h-5V11h-1v5.5h-4.5V11h-1v5.5H7V11H6v5.5H1V10h22Z"></path></svg>