<svg width="48" height="48" xmlns="http://www.w3.org/2000/svg" viewBox="0 0 24 24" class="Icon_icon__qr5nN TechValueIcons_icon__dDyS5 Icon_deepGreen__lih4K" aria-hidden="true"><path d="M12.5 8h-1v4.42l3.52 3.56.71-.71-3.23-3.26V8zm7.5 4a8 8 0 0 0-4-6.92V1.31A1.31 1.31 0 0 0 14.67 0H9.28A1.31 1.31 0 0 0 8 1.31v3.77a8 8 0 0 0 0 13.84v3.77A1.31 1.31 0 0 0 9.28 24h5.39A1.31 1.31 0 0 0 16 22.69v-3.77A8 8 0 0 0 20 12ZM9 1.31A.31.31 0 0 1 9.28 1h5.39a.31.31 0 0 1 .31.31v3.28a7.95 7.95 0 0 0-6 0Zm6 21.38a.31.31 0 0 1-.31.31H9.28a.31.31 0 0 1-.28-.31v-3.28a7.95 7.95 0 0 0 6 0ZM12 19a7 7 0 1 1 7-7 7 7 0 0 1-7 7Z"></path></svg>