<svg width="48" height="48" xmlns="http://www.w3.org/2000/svg" viewBox="0 0 24 24" class="Icon_icon__qr5nN TechValueIcons_icon__dDyS5 Icon_deepGreen__lih4K" aria-hidden="true"><path d="M22.67 17.07a1.33 1.33 0 0 1-.86-.32l-2.76-2.29h-6.22A7.25 7.25 0 0 1 5.55 7.3a7.53 7.53 0 0 1 2.09-5.13A7.26 7.26 0 0 1 12.78 0h3.83A7.44 7.44 0 0 1 24 7.17v8.57a1.33 1.33 0 0 1-1.33 1.33ZM22.45 16a.33.33 0 0 0 .36 0 .32.32 0 0 0 .19-.3V7.17A6.42 6.42 0 0 0 16.66 1h-3.88a6.34 6.34 0 0 0-4.43 2 6 6 0 0 0-1.8 4.34 6.22 6.22 0 0 0 6.32 6.17h6.54ZM10.03 7.52a.98.98 0 1 0 1.96 0 .98.98 0 1 0-1.96 0zm4-.03A.98.98 0 1 0 16 7.5a.98.98 0 1 0-1.96 0zm4.01-.03a.98.98 0 1 0 1.96.01.98.98 0 1 0-1.96 0zm-.7 7.97a6.27 6.27 0 0 1-6.15 4.94H4.61L1.56 22.9a.32.32 0 0 1-.56-.25v-8.56a6.18 6.18 0 0 1 3.63-5.55V7.45l-.19.07A7.22 7.22 0 0 0 0 14.09v8.56a1.3 1.3 0 0 0 .76 1.21 1.42 1.42 0 0 0 .57.12 1.32 1.32 0 0 0 .86-.31L5 21.37h6.22a7.27 7.27 0 0 0 7.16-5.94Z"></path></svg>